<?xml version="1.0" encoding="utf-8"?>
<!-- Generator: Adobe Illustrator 25.2.1, SVG Export Plug-In . SVG Version: 6.00 Build 0)  -->
<svg version="1.1" id="Livello_1" xmlns="http://www.w3.org/2000/svg" xmlns:xlink="http://www.w3.org/1999/xlink" x="0px" y="0px"
	 viewBox="0 0 612 610.85" style="enable-background:new 0 0 612 610.85;" xml:space="preserve">
<style type="text/css">
	.st0{fill:#2EC19E;}
	.st1{fill:#ED1C24;}
	.st2{fill:#FFFFFF;}
	.st3{fill:#244C58;}
</style>
<g>
	<circle class="st0" cx="306" cy="305.71" r="301.14"/>
	<path class="st1" d="M196.84,111.86L196.84,111.86c-3.23-3.23-8.48-3.23-11.71,0l-32.47,32.47l-32.47-32.47
		c-3.23-3.23-8.48-3.23-11.71,0l0,0c-3.23,3.23-3.23,8.48,0,11.71l32.47,32.47l-32.47,32.47c-3.23,3.23-3.23,8.48,0,11.71l0,0
		c3.23,3.23,8.48,3.23,11.71,0l32.47-32.47l32.47,32.47c3.23,3.23,8.48,3.23,11.71,0l0,0c3.23-3.23,3.23-8.48,0-11.71l-32.47-32.47
		l32.47-32.47C200.08,120.34,200.08,115.1,196.84,111.86z"/>
	<path class="st2" d="M152.66,357.7c-28.49,0-51.67-23.18-51.67-51.67s23.18-51.67,51.67-51.67s51.67,23.18,51.67,51.67
		S181.15,357.7,152.66,357.7z M152.66,270.93c-19.36,0-35.1,15.75-35.1,35.1s15.75,35.1,35.1,35.1s35.1-15.75,35.1-35.1
		S172.01,270.93,152.66,270.93z"/>
	<path class="st3" d="M526.87,232.47L526.87,232.47c0-4.57-3.71-8.28-8.28-8.28h-122.4c-4.65,0-8.42-3.77-8.42-8.42V91.39
		c0-4.57-3.71-8.28-8.28-8.28h0c-4.57,0-8.28,3.71-8.28,8.28v124.38c0,4.65-3.77,8.42-8.42,8.42H244.36c-4.65,0-8.42-3.77-8.42-8.42
		V91.39c0-4.57-3.71-8.28-8.28-8.28h0c-4.57,0-8.28,3.71-8.28,8.28v124.38c0,4.65-3.77,8.42-8.42,8.42H93.41
		c-4.57,0-8.28,3.71-8.28,8.28v0c0,4.57,3.71,8.28,8.28,8.28h117.56c4.65,0,8.42,3.77,8.42,8.42V362.9c0,4.65-3.77,8.42-8.42,8.42
		H93.41c-4.57,0-8.28,3.71-8.28,8.28l0,0c0,4.57,3.71,8.28,8.28,8.28h117.56c4.65,0,8.42,3.77,8.42,8.42v115.2
		c0,4.57,3.71,8.28,8.28,8.28h0c4.57,0,8.28-3.71,8.28-8.28V396.3c0-4.65,3.77-8.42,8.42-8.42h118.43c4.65,0,8.42,3.77,8.42,8.42
		v120.27c0,4.57,3.71,8.28,8.28,8.28h0c4.57,0,8.28-3.71,8.28-8.28V396.3c0-4.65,3.77-8.42,8.42-8.42h122.4
		c4.57,0,8.28-3.71,8.28-8.28l0,0c0-4.57-3.71-8.28-8.28-8.28h-122.4c-4.65,0-8.42-3.77-8.42-8.42V249.17
		c0-4.65,3.77-8.42,8.42-8.42h122.4C523.17,240.75,526.87,237.04,526.87,232.47z M362.79,371.32H244.36c-4.65,0-8.42-3.77-8.42-8.42
		V249.17c0-4.65,3.77-8.42,8.42-8.42h118.43c4.65,0,8.42,3.77,8.42,8.42V362.9C371.21,367.55,367.44,371.32,362.79,371.32z"/>
	<path class="st1" d="M196.84,406.56L196.84,406.56c-3.23-3.23-8.48-3.23-11.71,0l-32.47,32.47l-32.47-32.47
		c-3.23-3.23-8.48-3.23-11.71,0h0c-3.23,3.23-3.23,8.48,0,11.71l32.47,32.47l-32.47,32.47c-3.23,3.23-3.23,8.48,0,11.71l0,0
		c3.23,3.23,8.48,3.23,11.71,0l32.47-32.47l32.47,32.47c3.23,3.23,8.48,3.23,11.71,0l0,0c3.23-3.23,3.23-8.48,0-11.71l-32.47-32.47
		l32.47-32.47C200.08,415.04,200.08,409.8,196.84,406.56z"/>
	<path class="st2" d="M306,357.7c-28.49,0-51.67-23.18-51.67-51.67s23.18-51.67,51.67-51.67s51.67,23.18,51.67,51.67
		S334.49,357.7,306,357.7z M306,270.93c-19.36,0-35.1,15.75-35.1,35.1s15.75,35.1,35.1,35.1c19.36,0,35.1-15.75,35.1-35.1
		S325.36,270.93,306,270.93z"/>
	<path class="st2" d="M457.47,207.72c-28.49,0-51.67-23.18-51.67-51.67s23.18-51.67,51.67-51.67s51.67,23.18,51.67,51.67
		S485.96,207.72,457.47,207.72z M457.47,120.95c-19.36,0-35.1,15.75-35.1,35.1s15.75,35.1,35.1,35.1c19.36,0,35.1-15.75,35.1-35.1
		S476.83,120.95,457.47,120.95z"/>
	<path class="st1" d="M501.65,259.8L501.65,259.8c-3.23-3.23-8.48-3.23-11.71,0l-32.47,32.47l-32.47-32.47
		c-3.23-3.23-8.48-3.23-11.71,0v0c-3.23,3.23-3.23,8.48,0,11.71l32.47,32.47l-32.47,32.47c-3.23,3.23-3.23,8.48,0,11.71l0,0
		c3.23,3.23,8.48,3.23,11.71,0l32.47-32.47l32.47,32.47c3.23,3.23,8.48,3.23,11.71,0l0,0c3.23-3.23,3.23-8.48,0-11.71l-32.47-32.47
		l32.47-32.47C504.89,268.27,504.89,263.03,501.65,259.8z"/>
</g>
</svg>
