<?xml version="1.0" encoding="utf-8"?>
<!-- Generator: Adobe Illustrator 25.2.1, SVG Export Plug-In . SVG Version: 6.00 Build 0)  -->
<svg version="1.1" id="Livello_1" xmlns="http://www.w3.org/2000/svg" xmlns:xlink="http://www.w3.org/1999/xlink" x="0px" y="0px"
	 viewBox="0 0 612 610.8" style="enable-background:new 0 0 612 610.8;" xml:space="preserve">
<style type="text/css">
	.st0{fill:#2EC19E;}
	.st1{fill:#ED1C24;}
	.st2{fill:#FFFFFF;}
	.st3{fill:#244C58;}
</style>
<circle class="st0" cx="306" cy="306" r="301.1"/>
<path class="st1" d="M188.5,97.6L188.5,97.6c-3.5-3.5-9.1-3.5-12.6,0L141,132.5L106,97.6c-3.5-3.5-9.1-3.5-12.6,0l0,0
	c-3.5,3.5-3.5,9.1,0,12.6l34.9,34.9L93.4,180c-3.5,3.5-3.5,9.1,0,12.6l0,0c3.5,3.5,9.1,3.5,12.6,0l34.9-34.9l34.9,34.9
	c3.5,3.5,9.1,3.5,12.6,0l0,0c3.5-3.5,3.5-9.1,0-12.6l-34.9-34.9l34.9-34.9C192,106.7,192,101,188.5,97.6z"/>
<path class="st2" d="M141,362.1c-30.7,0-55.6-24.9-55.6-55.6s24.9-55.6,55.6-55.6s55.6,24.9,55.6,55.6S171.6,362.1,141,362.1z
	 M141,268.7c-20.8,0-37.8,16.9-37.8,37.8c0,20.8,16.9,37.8,37.8,37.8s37.8-16.9,37.8-37.8C178.8,285.7,161.8,268.7,141,268.7z"/>
<path class="st3" d="M543.7,227.3L543.7,227.3c0-4.9-4-8.9-8.9-8.9H403.1c-5,0-9.1-4.1-9.1-9.1V75.5c0-4.9-4-8.9-8.9-8.9l0,0
	c-4.9,0-8.9,4-8.9,8.9v133.9c0,5-4.1,9.1-9.1,9.1H239.7c-5,0-9.1-4.1-9.1-9.1V75.5c0-4.9-4-8.9-8.9-8.9l0,0c-4.9,0-8.9,4-8.9,8.9
	v133.9c0,5-4.1,9.1-9.1,9.1H77.2c-4.9,0-8.9,4-8.9,8.9l0,0c0,4.9,4,8.9,8.9,8.9h126.5c5,0,9.1,4.1,9.1,9.1v122.4
	c0,5-4.1,9.1-9.1,9.1H77.2c-4.9,0-8.9,4-8.9,8.9l0,0c0,4.9,4,8.9,8.9,8.9h126.5c5,0,9.1,4.1,9.1,9.1v124c0,4.9,4,8.9,8.9,8.9l0,0
	c4.9,0,8.9-4,8.9-8.9v-124c0-5,4.1-9.1,9.1-9.1h127.5c5,0,9.1,4.1,9.1,9.1v129.4c0,4.9,4,8.9,8.9,8.9l0,0c4.9,0,8.9-4,8.9-8.9V403.7
	c0-5,4.1-9.1,9.1-9.1h131.7c4.9,0,8.9-4,8.9-8.9l0,0c0-4.9-4-8.9-8.9-8.9H403.1c-5,0-9.1-4.1-9.1-9.1V245.3c0-5,4.1-9.1,9.1-9.1
	h131.7C539.7,236.3,543.7,232.3,543.7,227.3z M367.1,376.8H239.7c-5,0-9.1-4.1-9.1-9.1V245.3c0-5,4.1-9.1,9.1-9.1h127.5
	c5,0,9.1,4.1,9.1,9.1v122.4C376.2,372.7,372.1,376.8,367.1,376.8z"/>
<path class="st1" d="M188.5,414.7L188.5,414.7c-3.5-3.5-9.1-3.5-12.6,0L141,449.6L106,414.7c-3.5-3.5-9.1-3.5-12.6,0l0,0
	c-3.5,3.5-3.5,9.1,0,12.6l34.9,34.9l-34.9,34.9c-3.5,3.5-3.5,9.1,0,12.6l0,0c3.5,3.5,9.1,3.5,12.6,0l34.9-34.9l34.9,34.9
	c3.5,3.5,9.1,3.5,12.6,0l0,0c3.5-3.5,3.5-9.1,0-12.6l-34.9-34.9l34.9-34.9C192,423.8,192,418.2,188.5,414.7z"/>
<path class="st2" d="M306,362.1c-30.7,0-55.6-24.9-55.6-55.6s24.9-55.6,55.6-55.6s55.6,24.9,55.6,55.6S336.7,362.1,306,362.1z
	 M306,268.7c-20.8,0-37.8,16.9-37.8,37.8c0,20.8,16.9,37.8,37.8,37.8c20.8,0,37.8-16.9,37.8-37.8C343.8,285.7,326.8,268.7,306,268.7
	z"/>
<path class="st2" d="M469,200.7c-30.7,0-55.6-24.9-55.6-55.6s24.9-55.6,55.6-55.6s55.6,24.9,55.6,55.6S499.7,200.7,469,200.7z
	 M469,107.3c-20.8,0-37.8,16.9-37.8,37.8s16.9,37.8,37.8,37.8c20.8,0,37.8-16.9,37.8-37.8S489.8,107.3,469,107.3z"/>
<path class="st1" d="M516.6,256.8L516.6,256.8c-3.5-3.5-9.1-3.5-12.6,0L469,291.7l-34.9-34.9c-3.5-3.5-9.1-3.5-12.6,0l0,0
	c-3.5,3.5-3.5,9.1,0,12.6l34.9,34.9l-34.9,34.9c-3.5,3.5-3.5,9.1,0,12.6l0,0c3.5,3.5,9.1,3.5,12.6,0l34.9-34.9l34.9,34.9
	c3.5,3.5,9.1,3.5,12.6,0l0,0c3.5-3.5,3.5-9.1,0-12.6l-34.9-34.9l34.9-34.9C520,265.9,520,260.2,516.6,256.8z"/>
</svg>
