<?xml version="1.0" encoding="utf-8"?>
<!-- Generator: Adobe Illustrator 25.2.1, SVG Export Plug-In . SVG Version: 6.00 Build 0)  -->
<svg version="1.1" id="Livello_1" xmlns="http://www.w3.org/2000/svg" xmlns:xlink="http://www.w3.org/1999/xlink" x="0px" y="0px"
	 viewBox="0 0 1920 1080" style="enable-background:new 0 0 1920 1080;" xml:space="preserve">
<path d="M1254.17,285.95c-6.97-53.31-53.44-96.4-107.94-100.09c-54.14-3.66-106.88,33.72-120.84,85.64
	c-13.76,51.18,7.27,104.09,52.91,132.76c3.99,2.51,6.89,4.43,5.36,10.24c-6.47,24.55-17.49,46.61-33.96,65.99
	c-23.84,28.05-54.27,47.24-86.17,64.52c-42.68,23.12-88.3,40.2-130.82,63.66c-0.65,0.36-1.58,0.2-3.15,0.35c0-9.32,0-18.42,0-27.52
	c0-103.17,0.03-206.34-0.07-309.52c0-5.08,0.45-8.64,6.09-10.96c8.48-3.5,15.64-9.39,22.65-15.36
	c46.72-39.79,54.43-109.79,17.38-158.48c-38.17-50.16-107.95-61.97-159.13-26.95c-74.66,51.09-67.31,162.55,13.45,201.74
	c4.76,2.31,4.62,5.34,4.62,9.22c-0.02,178.81-0.04,357.63,0.1,536.44c0,5.42-1.49,8.18-6.47,10.84
	c-46.39,24.81-69.68,71.55-61.78,123.03c11.6,75.63,95.86,120.6,164.57,87.09c43.1-21.02,67.03-56.25,67.76-104.48
	c0.73-47.76-21.3-83.49-63.62-106.08c-4.46-2.38-5.69-4.89-5.64-9.55c0.22-19.19,0.7-38.4-0.1-57.56
	c-0.66-15.77,6.14-27.3,17.52-36.81c5.52-4.61,11.47-8.81,17.59-12.59c32.42-20.02,67.8-34.13,102.01-50.57
	c36.05-17.33,71.54-35.49,103.94-59.22c59.42-43.52,98.37-100.15,111.46-173.35c0.8-4.46,2.65-6.55,6.48-8.43
	C1236.52,386.3,1261.19,339.67,1254.17,285.95z M839.92,923.03c0.01,31.39-26.2,56.79-58.59,56.76
	c-32.49-0.03-57.41-25.45-57.44-58.61c-0.03-30.77,26.48-56.71,58.03-56.78C813.95,864.33,839.92,890.58,839.92,923.03z
	 M781.41,215.27c-32.45-0.22-58.04-26.86-57.5-59.88c0.5-30.77,26.43-55.81,57.91-55.93c32.13-0.12,58.05,25.94,58.12,58.45
	C840.01,188.89,812.87,215.48,781.41,215.27z M1137.95,362.13c-32.38-0.19-57.47-25.9-57.45-58.85
	c0.02-30.93,26.38-56.57,58.07-56.49c31.77,0.08,57.92,26.89,57.56,59.02C1195.78,337.11,1169.74,362.31,1137.95,362.13z"/>
</svg>
